<mxfile host="app.diagrams.net" modified="2023-01-24T12:19:10.374Z" agent="5.0 (Windows NT 10.0; Win64; x64) AppleWebKit/537.36 (KHTML, like Gecko) Chrome/109.0.0.0 Safari/537.36" etag="hYlB5fZ2BxmPvoUEcQg-" version="20.8.10" type="github">
  <diagram id="C5RBs43oDa-KdzZeNtuy" name="Page-1">
    <mxGraphModel dx="875" dy="492" grid="1" gridSize="10" guides="1" tooltips="1" connect="1" arrows="1" fold="1" page="1" pageScale="1" pageWidth="827" pageHeight="1169" math="0" shadow="0">
      <root>
        <mxCell id="WIyWlLk6GJQsqaUBKTNV-0" />
        <mxCell id="WIyWlLk6GJQsqaUBKTNV-1" parent="WIyWlLk6GJQsqaUBKTNV-0" />
        <mxCell id="mreTChfh8cRGwazje63k-6" style="edgeStyle=orthogonalEdgeStyle;rounded=0;orthogonalLoop=1;jettySize=auto;html=1;exitX=0.5;exitY=1;exitDx=0;exitDy=0;entryX=0.5;entryY=0;entryDx=0;entryDy=0;" edge="1" parent="WIyWlLk6GJQsqaUBKTNV-1" source="mreTChfh8cRGwazje63k-0" target="mreTChfh8cRGwazje63k-2">
          <mxGeometry relative="1" as="geometry" />
        </mxCell>
        <mxCell id="mreTChfh8cRGwazje63k-0" value="Start" style="ellipse;whiteSpace=wrap;html=1;" vertex="1" parent="WIyWlLk6GJQsqaUBKTNV-1">
          <mxGeometry x="70" y="80" width="120" height="80" as="geometry" />
        </mxCell>
        <mxCell id="mreTChfh8cRGwazje63k-1" value="End" style="ellipse;whiteSpace=wrap;html=1;" vertex="1" parent="WIyWlLk6GJQsqaUBKTNV-1">
          <mxGeometry x="70" y="740" width="120" height="80" as="geometry" />
        </mxCell>
        <mxCell id="mreTChfh8cRGwazje63k-9" style="edgeStyle=orthogonalEdgeStyle;rounded=0;orthogonalLoop=1;jettySize=auto;html=1;exitX=0.5;exitY=1;exitDx=0;exitDy=0;" edge="1" parent="WIyWlLk6GJQsqaUBKTNV-1" source="mreTChfh8cRGwazje63k-2" target="mreTChfh8cRGwazje63k-3">
          <mxGeometry relative="1" as="geometry" />
        </mxCell>
        <mxCell id="mreTChfh8cRGwazje63k-2" value="firstnum = 0&lt;br&gt;secondnum = 0&lt;br&gt;sum = 0&lt;br&gt;ave = 0" style="shape=hexagon;perimeter=hexagonPerimeter2;whiteSpace=wrap;html=1;fixedSize=1;" vertex="1" parent="WIyWlLk6GJQsqaUBKTNV-1">
          <mxGeometry x="70" y="200" width="120" height="80" as="geometry" />
        </mxCell>
        <mxCell id="mreTChfh8cRGwazje63k-10" style="edgeStyle=orthogonalEdgeStyle;rounded=0;orthogonalLoop=1;jettySize=auto;html=1;exitX=0.5;exitY=1;exitDx=0;exitDy=0;entryX=0.5;entryY=0;entryDx=0;entryDy=0;" edge="1" parent="WIyWlLk6GJQsqaUBKTNV-1" source="mreTChfh8cRGwazje63k-3" target="mreTChfh8cRGwazje63k-5">
          <mxGeometry relative="1" as="geometry" />
        </mxCell>
        <mxCell id="mreTChfh8cRGwazje63k-3" value="INPUT&lt;br&gt;get firstnum()&lt;br&gt;get secondnum()" style="shape=parallelogram;perimeter=parallelogramPerimeter;whiteSpace=wrap;html=1;fixedSize=1;" vertex="1" parent="WIyWlLk6GJQsqaUBKTNV-1">
          <mxGeometry x="50" y="320" width="160" height="60" as="geometry" />
        </mxCell>
        <mxCell id="mreTChfh8cRGwazje63k-12" style="edgeStyle=orthogonalEdgeStyle;rounded=0;orthogonalLoop=1;jettySize=auto;html=1;exitX=0.5;exitY=1;exitDx=0;exitDy=0;entryX=0.5;entryY=0;entryDx=0;entryDy=0;" edge="1" parent="WIyWlLk6GJQsqaUBKTNV-1" source="mreTChfh8cRGwazje63k-4" target="mreTChfh8cRGwazje63k-1">
          <mxGeometry relative="1" as="geometry" />
        </mxCell>
        <mxCell id="mreTChfh8cRGwazje63k-4" value="OUTPUT&lt;br&gt;display ave" style="shape=parallelogram;perimeter=parallelogramPerimeter;whiteSpace=wrap;html=1;fixedSize=1;" vertex="1" parent="WIyWlLk6GJQsqaUBKTNV-1">
          <mxGeometry x="70" y="640" width="120" height="60" as="geometry" />
        </mxCell>
        <mxCell id="mreTChfh8cRGwazje63k-11" style="edgeStyle=orthogonalEdgeStyle;rounded=0;orthogonalLoop=1;jettySize=auto;html=1;exitX=0.5;exitY=1;exitDx=0;exitDy=0;entryX=0.5;entryY=0;entryDx=0;entryDy=0;startArrow=none;" edge="1" parent="WIyWlLk6GJQsqaUBKTNV-1" source="mreTChfh8cRGwazje63k-14" target="mreTChfh8cRGwazje63k-4">
          <mxGeometry relative="1" as="geometry" />
        </mxCell>
        <mxCell id="mreTChfh8cRGwazje63k-5" value="sum = firstnum + secondnum" style="rounded=0;whiteSpace=wrap;html=1;" vertex="1" parent="WIyWlLk6GJQsqaUBKTNV-1">
          <mxGeometry x="70" y="420" width="120" height="60" as="geometry" />
        </mxCell>
        <mxCell id="mreTChfh8cRGwazje63k-13" value="" style="edgeStyle=orthogonalEdgeStyle;rounded=0;orthogonalLoop=1;jettySize=auto;html=1;exitX=0.5;exitY=1;exitDx=0;exitDy=0;entryX=0.5;entryY=0;entryDx=0;entryDy=0;endArrow=none;" edge="1" parent="WIyWlLk6GJQsqaUBKTNV-1" source="mreTChfh8cRGwazje63k-5" target="mreTChfh8cRGwazje63k-14">
          <mxGeometry relative="1" as="geometry">
            <mxPoint x="130" y="480" as="sourcePoint" />
            <mxPoint x="130" y="600" as="targetPoint" />
          </mxGeometry>
        </mxCell>
        <mxCell id="mreTChfh8cRGwazje63k-14" value="ave = sum / 2" style="rounded=0;whiteSpace=wrap;html=1;" vertex="1" parent="WIyWlLk6GJQsqaUBKTNV-1">
          <mxGeometry x="70" y="530" width="120" height="60" as="geometry" />
        </mxCell>
        <mxCell id="mreTChfh8cRGwazje63k-15" value="Flowchart 1: Averaging 2 Numbers" style="text;html=1;align=center;verticalAlign=middle;resizable=0;points=[];autosize=1;strokeColor=none;fillColor=none;" vertex="1" parent="WIyWlLk6GJQsqaUBKTNV-1">
          <mxGeometry x="25" y="35" width="210" height="30" as="geometry" />
        </mxCell>
      </root>
    </mxGraphModel>
  </diagram>
</mxfile>
